<svg width="24" height="24" viewBox="0 0 24 24" fill="none" xmlns="http://www.w3.org/2000/svg">
<path d="M14.4152 7.45657L8.98546 12.8873C8.89377 12.9758 8.82063 13.0818 8.77032 13.1989C8.72001 13.3161 8.69352 13.442 8.69242 13.5695C8.6913 13.6969 8.7156 13.8233 8.76387 13.9413C8.81214 14.0593 8.88342 14.1665 8.97355 14.2567C9.0637 14.3468 9.17088 14.4181 9.28886 14.4663C9.40684 14.5146 9.53325 14.5389 9.66067 14.5378C9.78816 14.5367 9.91411 14.5102 10.0313 14.4599C10.1484 14.4096 10.2543 14.3364 10.3428 14.2448L15.7736 8.81497C16.3138 8.27483 16.6172 7.54222 16.6172 6.77833C16.6172 6.01445 16.3138 5.28184 15.7736 4.74169C15.2335 4.20155 14.5009 3.89809 13.7369 3.89809C12.9731 3.89809 12.2405 4.20155 11.7003 4.74169L6.26962 10.1724C5.81464 10.6161 5.4523 11.1456 5.20359 11.7304C4.95488 12.3152 4.82476 12.9435 4.82078 13.5789C4.8168 14.2144 4.93904 14.8443 5.1804 15.4322C5.42175 16.02 5.77744 16.5541 6.22681 17.0034C6.67619 17.4527 7.2103 17.8083 7.79818 18.0495C8.38605 18.2909 9.01599 18.413 9.65146 18.409C10.2869 18.4048 10.9152 18.2747 11.4999 18.0258C12.0847 17.7771 12.6142 17.4147 13.0577 16.9596L18.4884 11.5299L19.8459 12.8873L14.4152 18.3181C13.7912 18.9421 13.0503 19.4371 12.235 19.7749C11.4196 20.1126 10.5457 20.2863 9.66317 20.2863C8.78069 20.2863 7.9068 20.1126 7.09145 19.7749C6.2761 19.4371 5.53525 18.9421 4.91122 18.3181C4.28717 17.694 3.79215 16.9531 3.45443 16.1378C3.1167 15.3225 2.94287 14.4486 2.94287 13.566C2.94287 12.6835 3.1167 11.8096 3.45443 10.9942C3.79215 10.1789 4.28717 9.43806 4.91122 8.81401L10.3428 3.38425C11.2482 2.50989 12.4607 2.02608 13.7193 2.03702C14.9777 2.04796 16.1817 2.55277 17.0716 3.44272C17.9616 4.33268 18.4664 5.53658 18.4773 6.79513C18.4883 8.05367 18.0044 9.26616 17.13 10.1715L11.7003 15.6041C11.4328 15.8716 11.1153 16.0837 10.7657 16.2284C10.4162 16.3732 10.0416 16.4476 9.66336 16.4476C9.28507 16.4475 8.9105 16.373 8.56103 16.2281C8.21156 16.0834 7.89403 15.8711 7.62658 15.6036C7.35912 15.3361 7.14697 15.0185 7.00225 14.669C6.85753 14.3196 6.78306 13.945 6.78311 13.5666C6.78316 13.1884 6.85771 12.8138 7.00251 12.4644C7.14732 12.1148 7.35953 11.7973 7.62706 11.5299L13.0577 6.09913L14.4152 7.45657Z" fill="black"/>
</svg>
