<svg width="24" height="24" viewBox="0 0 24 24" fill="none" xmlns="http://www.w3.org/2000/svg">
<path d="M8.99999 2V4H15V2H17V4H20.9999C21.2653 4 21.5195 4.10536 21.707 4.29289C21.8947 4.48043 22 4.73479 22 5V20.9999C22 21.2651 21.8947 21.5196 21.707 21.7071C21.5195 21.8947 21.2653 22 20.9999 22H3C2.73478 22 2.48043 21.8947 2.29289 21.7071C2.10536 21.5196 2 21.2651 2 20.9999V5C2 4.73479 2.10536 4.48043 2.29289 4.29289C2.48043 4.10536 2.73478 4 3 4H7V2H8.99999ZM20 11H4V20.0001H20V11ZM15.036 12.136L16.45 13.55L11.5 18.5001L7.96399 14.964L9.37999 13.55L11.501 15.672L15.036 12.136ZM7 5.99999H4V8.99999H20V5.99999H17V7H15V5.99999H8.99999V7H7V5.99999Z" fill="black"/>
</svg>
