<svg width="25" height="24" viewBox="0 0 25 24" fill="none" xmlns="http://www.w3.org/2000/svg">
<path fill-rule="evenodd" clip-rule="evenodd" d="M21.0787 13.7565L19.1658 13.378C19.2536 12.9339 19.3 12.4733 19.3 12C19.3 11.5267 19.2536 11.0661 19.1658 10.622L21.0787 10.2435C21.1911 10.8116 21.25 11.3989 21.25 12C21.25 12.6011 21.1911 13.1884 21.0787 13.7565ZM19.7341 6.99946L18.1137 8.08428C17.5984 7.31463 16.9354 6.65157 16.1657 6.1363L17.2505 4.51591C18.232 5.17298 19.077 6.018 19.7341 6.99946ZM14.0065 3.17131L13.628 5.08423C13.1839 4.99637 12.7233 4.95 12.25 4.95C11.7767 4.95 11.3161 4.99637 10.872 5.08423L10.4935 3.17131C11.0616 3.05892 11.6489 3 12.25 3C12.8511 3 13.4384 3.05892 14.0065 3.17131ZM7.24946 4.51591L8.33428 6.1363C7.56463 6.65157 6.90157 7.31463 6.3863 8.08428L4.76591 6.99946C5.42298 6.018 6.268 5.17298 7.24946 4.51591ZM3.42131 10.2435C3.30892 10.8116 3.25 11.3989 3.25 12C3.25 12.6011 3.30892 13.1884 3.42131 13.7565L5.33423 13.378C5.24637 12.9339 5.2 12.4733 5.2 12C5.2 11.5267 5.24637 11.0661 5.33423 10.622L3.42131 10.2435ZM4.76591 17.0005L6.3863 15.9157C6.90157 16.6854 7.56463 17.3484 8.33428 17.8637L7.24946 19.4841C6.268 18.827 5.42298 17.982 4.76591 17.0005ZM10.4935 20.8287L10.872 18.9158C11.3161 19.0036 11.7767 19.05 12.25 19.05C12.7233 19.05 13.1839 19.0036 13.628 18.9158L14.0065 20.8287C13.4384 20.9411 12.8511 21 12.25 21C11.6489 21 11.0616 20.9411 10.4935 20.8287ZM17.2505 19.4841L16.1657 17.8637C16.9354 17.3484 17.5984 16.6854 18.1137 15.9157L19.7341 17.0005C19.077 17.982 18.232 18.827 17.2505 19.4841Z" fill="black" fill-opacity="0.8"/>
</svg>
