<svg width="24" height="24" viewBox="0 0 24 24" fill="none" xmlns="http://www.w3.org/2000/svg">
<path d="M16.5004 7V3C16.5004 2.73478 16.3992 2.48043 16.2192 2.29289C16.0391 2.10536 15.795 2 15.5404 2H3.06036C2.80575 2 2.56156 2.10536 2.38153 2.29289C2.20149 2.48043 2.10036 2.73478 2.10036 3V16C2.10036 16.2652 2.20149 16.5196 2.38153 16.7071C2.56156 16.8946 2.80575 17 3.06036 17H6.90036V20.993C6.90036 21.549 7.3314 22 7.86708 22H20.3337C20.4606 22.0001 20.5863 21.9742 20.7037 21.9236C20.8211 21.8731 20.9277 21.7989 21.0175 21.7053C21.1073 21.6118 21.1785 21.5008 21.227 21.3785C21.2755 21.2563 21.3005 21.1253 21.3004 20.993L21.2975 8.007C21.2975 7.451 20.8665 7 20.3308 7H16.5004ZM14.5804 7H7.86708C7.33332 7 6.90036 7.449 6.90036 8.007V15H4.02036V4H14.5804V7ZM8.82036 9H19.3775L19.3804 20H8.82036V9Z" fill="black"/>
<path d="M18.4146 13.5101H9.77463V15.5101H18.4146V13.5101Z" fill="black"/>
</svg>
