<svg width="24" height="24" viewBox="0 0 24 24" fill="none" xmlns="http://www.w3.org/2000/svg">
<path d="M6.90036 5.76984V2.88984C6.90036 2.63524 7.0015 2.39105 7.18154 2.21102C7.36158 2.03099 7.60575 1.92984 7.86036 1.92984H19.3804C19.635 1.92984 19.8791 2.03099 20.0592 2.21102C20.2392 2.39105 20.3404 2.63524 20.3404 2.88984V16.3299C20.3404 16.5845 20.2392 16.8286 20.0592 17.0087C19.8791 17.1887 19.635 17.2899 19.3804 17.2899H16.5004V20.1699C16.5004 20.6998 16.0684 21.1299 15.5337 21.1299H4.02708C3.90048 21.1306 3.77498 21.1064 3.65779 21.0585C3.54059 21.0106 3.43402 20.94 3.34419 20.8508C3.25436 20.7615 3.18304 20.6555 3.13433 20.5386C3.08562 20.4218 3.06049 20.2964 3.06036 20.1699L3.06324 6.72984C3.06324 6.19992 3.49524 5.76984 4.029 5.76984H6.90036ZM4.98228 7.68984L4.98036 19.2099H14.5804V7.68984H4.98228ZM8.82036 5.76984H16.5004V15.3699H18.4204V3.84984H8.82036V5.76984ZM6.90036 10.5699H12.6604V12.4899H6.90036V10.5699ZM6.90036 14.4099H12.6604V16.3299H6.90036V14.4099Z" fill="black"/>
</svg>
