<svg width="24" height="24" viewBox="0 0 24 24" fill="none" xmlns="http://www.w3.org/2000/svg">
<path d="M6.45396 2.88986H20.3404C20.595 2.88986 20.8391 2.99101 21.0192 3.17105C21.1992 3.35107 21.3004 3.59526 21.3004 3.84986V19.2099C21.3004 19.4645 21.1992 19.7086 21.0192 19.8887C20.8391 20.0687 20.595 20.1699 20.3404 20.1699H6.45396C6.29595 20.1699 6.14037 20.1309 6.00105 20.0563C5.86171 19.9818 5.74293 19.8741 5.65524 19.7427L0.535554 12.0627C0.430301 11.9049 0.37413 11.7195 0.37413 11.5299C0.37413 11.3402 0.430301 11.1548 0.535554 10.9971L5.65524 3.31706C5.74293 3.18563 5.86171 3.07787 6.00105 3.00334C6.14037 2.92882 6.29595 2.88984 6.45396 2.88986ZM6.96756 4.80986L2.4882 11.5299L6.96756 18.2499H19.3804V4.80986H6.96756ZM12.6604 10.1725L15.3753 7.45658L16.7337 8.81498L14.0178 11.5299L16.7337 14.2448L15.3753 15.6032L12.6604 12.8874L9.94551 15.6032L8.58708 14.2448L11.303 11.5299L8.58708 8.81498L9.94551 7.45658L12.6604 10.1725Z" fill="black"/>
</svg>
