<svg width="24" height="24" viewBox="0 0 24 24" fill="none" xmlns="http://www.w3.org/2000/svg">
<path d="M19.3804 21.1299H4.02036C3.76575 21.1299 3.52158 21.0287 3.34154 20.8487C3.1615 20.6686 3.06036 20.4245 3.06036 20.1699V2.88984C3.06036 2.63524 3.1615 2.39105 3.34154 2.21102C3.52158 2.03099 3.76575 1.92984 4.02036 1.92984H19.3804C19.635 1.92984 19.8791 2.03099 20.0592 2.21102C20.2392 2.39105 20.3404 2.63524 20.3404 2.88984V20.1699C20.3404 20.4245 20.2392 20.6686 20.0592 20.8487C19.8791 21.0287 19.635 21.1299 19.3804 21.1299ZM18.4204 19.2099V3.84984H4.98036V19.2099H18.4204ZM7.86036 6.72984H15.5404V8.64984H7.86036V6.72984ZM7.86036 10.5699H15.5404V12.4899H7.86036V10.5699ZM7.86036 14.4099H15.5404V16.3299H7.86036V14.4099Z" fill="black"/>
</svg>
