<svg width="24" height="24" viewBox="0 0 24 24" fill="none" xmlns="http://www.w3.org/2000/svg">
<path d="M18.1545 3C18.6466 3 19.046 3.4032 19.046 3.9V7.2813L17.2631 9.0813V4.8H4.78288V19.2H17.2631V16.7178L19.046 14.9178V20.1C19.046 20.5968 18.6466 21 18.1545 21H3.89144C3.39937 21 3 20.5968 3 20.1V3.9C3 3.4032 3.39937 3 3.89144 3H18.1545ZM19.7395 9.1272L21 10.3998L14.0664 17.4L12.8041 17.3982L12.8059 16.1274L19.7395 9.1272ZM11.9144 12V13.8H7.45721V12H11.9144ZM14.5887 8.4V10.2H7.45721V8.4H14.5887Z" fill="black"/>
</svg>
