<svg width="24" height="24" viewBox="0 0 24 24" fill="none" xmlns="http://www.w3.org/2000/svg">
<path d="M11.7004 21.1299C6.39826 21.1299 2.10034 16.832 2.10034 11.5299C2.10034 6.22776 6.39826 1.92984 11.7004 1.92984C17.0024 1.92984 21.3004 6.22776 21.3004 11.5299C21.3004 16.832 17.0024 21.1299 11.7004 21.1299ZM11.7004 19.2099C13.7372 19.2099 15.6906 18.4007 17.1309 16.9604C18.5712 15.5201 19.3804 13.5667 19.3804 11.5299C19.3804 9.49298 18.5712 7.53954 17.1309 6.09926C15.6906 4.65899 13.7372 3.84984 11.7004 3.84984C9.66344 3.84984 7.71003 4.65899 6.26976 6.09926C4.82948 7.53954 4.02034 9.49298 4.02034 11.5299C4.02034 13.5667 4.82948 15.5201 6.26976 16.9604C7.71003 18.4007 9.66344 19.2099 11.7004 19.2099ZM10.7404 14.4099H12.6604V16.3299H10.7404V14.4099ZM10.7404 6.72984H12.6604V12.4899H10.7404V6.72984Z" fill="black"/>
</svg>
