<svg width="24" height="24" viewBox="0 0 24 24" fill="none" xmlns="http://www.w3.org/2000/svg">
<path d="M19.3749 15.103C20.0238 13.5613 20.1731 11.855 19.802 10.224C19.4309 8.59305 18.5579 7.11939 17.3058 6.01025C16.0538 4.90111 14.4856 4.21227 12.8218 4.04056C11.1579 3.86886 9.4821 4.22293 8.02992 5.053L7.03792 3.316C8.55555 2.44861 10.2741 1.99437 12.0221 1.99858C13.7701 2.00279 15.4865 2.46531 16.9999 3.34C21.4899 5.932 23.2099 11.482 21.1169 16.11L22.4589 16.884L18.2939 19.098L18.1289 14.384L19.3749 15.103V15.103ZM4.62492 8.897C3.97606 10.4387 3.8267 12.145 4.19783 13.776C4.56897 15.407 5.44193 16.8806 6.69399 17.9897C7.94605 19.0989 9.51424 19.7877 11.1781 19.9594C12.8419 20.1311 14.5177 19.7771 15.9699 18.947L16.9619 20.684C15.4443 21.5514 13.7257 22.0056 11.9777 22.0014C10.2297 21.9972 8.51335 21.5347 6.99992 20.66C2.50992 18.068 0.789917 12.518 2.88292 7.89L1.53992 7.117L5.70492 4.903L5.86992 9.617L4.62392 8.898L4.62492 8.897ZM13.4149 14.828L10.5839 12L7.75592 14.828L6.34192 13.414L10.5849 9.172L13.4139 12L16.2429 9.172L17.6569 10.586L13.4139 14.828H13.4149Z" fill="black"/>
</svg>
