<svg width="24" height="24" viewBox="0 0 24 24" fill="none" xmlns="http://www.w3.org/2000/svg">
<path d="M18.7803 14.5088C19.4033 13.0288 19.5467 11.3907 19.1903 9.82494C18.8341 8.25918 17.996 6.84448 16.7941 5.77971C15.5921 4.71493 14.0866 4.05364 12.4893 3.8888C10.892 3.72396 9.28326 4.06388 7.88915 4.86075L6.93683 3.19323C8.39377 2.36053 10.0435 1.92445 11.7216 1.92849C13.3998 1.93254 15.0474 2.37656 16.5003 3.21627C20.8107 5.70459 22.4619 11.0326 20.4526 15.4755L21.741 16.2185L17.7426 18.344L17.5842 13.8185L18.7803 14.5088ZM4.62035 8.55099C3.99746 10.0311 3.85407 11.669 4.21036 13.2348C4.56665 14.8005 5.40469 16.2153 6.60667 17.28C7.80865 18.3448 9.31411 19.0061 10.9114 19.1709C12.5086 19.3358 14.1175 18.9958 15.5115 18.199L16.4638 19.8665C15.0069 20.6992 13.3572 21.1353 11.679 21.1312C10.0009 21.1272 8.35326 20.6831 6.90035 19.8435C2.58995 17.3552 0.938756 12.0272 2.94803 7.58427L1.65875 6.84219L5.65715 4.71674L5.81555 9.24218L4.61939 8.55195L4.62035 8.55099ZM8.34035 13.4499H13.6203C13.7477 13.4499 13.8697 13.3993 13.9598 13.3093C14.0498 13.2192 14.1003 13.0972 14.1003 12.9699C14.1003 12.8425 14.0498 12.7205 13.9598 12.6304C13.8697 12.5404 13.7477 12.4899 13.6203 12.4899H9.78032C9.14384 12.4899 8.53339 12.237 8.0833 11.7869C7.63322 11.3368 7.38035 10.7264 7.38035 10.0899C7.38035 9.45334 7.63322 8.84289 8.0833 8.39281C8.53339 7.94272 9.14384 7.68987 9.78032 7.68987H10.7403V6.72987H12.6603V7.68987H15.0603V9.6099H9.78032C9.65302 9.6099 9.53096 9.6604 9.44094 9.75045C9.35092 9.8405 9.30035 9.96251 9.30035 10.0899C9.30035 10.2172 9.35092 10.3392 9.44094 10.4293C9.53096 10.5193 9.65302 10.5699 9.78032 10.5699H13.6203C14.2569 10.5699 14.8674 10.8227 15.3174 11.2728C15.7675 11.7229 16.0203 12.3333 16.0203 12.9699C16.0203 13.6064 15.7675 14.2168 15.3174 14.6669C14.8674 15.117 14.2569 15.3699 13.6203 15.3699H12.6603V16.3299H10.7403V15.3699H8.34035V13.4499Z" fill="black"/>
</svg>
