<svg width="24" height="24" viewBox="0 0 24 24" fill="none" xmlns="http://www.w3.org/2000/svg">
<path d="M3.84 2.98975H19.2C19.4546 2.98975 19.6988 3.0951 19.8788 3.28264C20.0588 3.47018 20.16 3.72453 20.16 3.98975V19.9897C20.16 20.255 20.0588 20.5093 19.8788 20.6969C19.6988 20.8844 19.4546 20.9897 19.2 20.9897H3.84C3.58539 20.9897 3.34122 20.8844 3.16118 20.6969C2.98115 20.5093 2.88 20.255 2.88 19.9897V3.98975C2.88 3.72453 2.98115 3.47018 3.16118 3.28264C3.34122 3.0951 3.58539 2.98975 3.84 2.98975ZM4.8 4.98975V18.9897H18.24V4.98975H4.8Z" fill="black"/>
<path d="M10.9696 13.7805L14.2594 10.3537L16.6091 12.8014V6.92697H10.9696L13.3194 9.37465L10.0298 12.8014L10.9696 13.7805Z" fill="black"/>
</svg>
