<svg width="24" height="24" viewBox="0 0 24 24" fill="none" xmlns="http://www.w3.org/2000/svg">
<path d="M4.02036 3H19.3804C19.635 3 19.8791 3.10536 20.0592 3.29289C20.2392 3.48043 20.3404 3.73478 20.3404 4V20C20.3404 20.2652 20.2392 20.5196 20.0592 20.7071C19.8791 20.8946 19.635 21 19.3804 21H4.02036C3.76575 21 3.52158 20.8946 3.34154 20.7071C3.1615 20.5196 3.06036 20.2652 3.06036 20V4C3.06036 3.73478 3.1615 3.48043 3.34154 3.29289C3.52158 3.10536 3.76575 3 4.02036 3ZM4.98036 5V19H18.4204V5H4.98036ZM10.7404 11V7H12.6604V11H16.5004V13H12.6604V17H10.7404V13H6.90036V11H10.7404Z" fill="black"/>
</svg>
