<svg width="24" height="24" viewBox="0 0 24 24" fill="none" xmlns="http://www.w3.org/2000/svg">
<path d="M17.3471 18.5349C15.6587 19.6059 13.6998 20.173 11.7004 20.1698C6.52407 20.1698 2.21751 16.445 1.31415 11.5298C1.72698 9.29369 2.85171 7.25097 4.52055 5.70644L1.51671 2.70548L2.87511 1.34708L21.8821 20.3551L20.5237 21.7125L17.3461 18.5349H17.3471ZM5.87799 7.0658C4.57335 8.25196 3.66453 9.81024 3.27447 11.5298C3.57427 12.8416 4.17616 14.0653 5.03223 15.1035C5.8883 16.1416 6.9749 16.9657 8.20556 17.5099C9.43621 18.0541 10.7769 18.3037 12.121 18.2384C13.465 18.1732 14.7753 17.7951 15.9474 17.1343L14.0005 15.1874C13.1718 15.7094 12.1902 15.9344 11.2167 15.8252C10.2434 15.7162 9.33595 15.2795 8.64334 14.5868C7.95072 13.8943 7.51404 12.9868 7.40493 12.0134C7.2958 11.04 7.52072 10.0584 8.04279 9.22964L5.87799 7.0658ZM12.5778 13.7647L9.46551 10.6524C9.29469 11.0871 9.25448 11.5624 9.34983 12.0197C9.44517 12.477 9.67191 12.8966 10.0022 13.227C10.3326 13.5573 10.7522 13.7841 11.2095 13.8794C11.6668 13.9747 12.1421 13.9345 12.5769 13.7637L12.5778 13.7647ZM20.1551 15.9381L18.7813 14.5653C19.4231 13.6507 19.88 12.6196 20.1263 11.5298C19.8654 10.3871 19.3749 9.30945 18.6845 8.36227C17.9941 7.41508 17.1184 6.61818 16.1105 6.01997C15.1026 5.42178 13.9836 5.03479 12.8214 4.88253C11.6593 4.73027 10.4783 4.81592 9.35031 5.13428L7.83543 3.6194C9.03255 3.149 10.3372 2.8898 11.7004 2.8898C16.8767 2.8898 21.1833 6.6146 22.0866 11.5298C21.7925 13.1289 21.1313 14.6379 20.1551 15.9381ZM11.4345 7.21748C12.0455 7.17971 12.6576 7.27225 13.2301 7.48898C13.8028 7.7057 14.3227 8.04165 14.7556 8.47455C15.1885 8.90745 15.5245 9.42742 15.7412 10C15.9579 10.5726 16.0504 11.1847 16.0127 11.7957L11.4335 7.21748H11.4345Z" fill="black"/>
</svg>
