<svg width="24" height="24" viewBox="0 0 24 24" fill="none" xmlns="http://www.w3.org/2000/svg">
<path d="M11.7004 2.88986C16.8767 2.88986 21.1833 6.61466 22.0866 11.5299C21.1842 16.4451 16.8767 20.1699 11.7004 20.1699C6.52407 20.1699 2.21751 16.4451 1.31415 11.5299C2.21655 6.61466 6.52407 2.88986 11.7004 2.88986ZM11.7004 18.2499C13.6583 18.2494 15.5581 17.5844 17.0888 16.3636C18.6194 15.1429 19.6904 13.4386 20.1263 11.5299C19.6887 9.62268 18.6171 7.92027 17.0866 6.70109C15.556 5.48191 13.6572 4.81805 11.7004 4.81805C9.74362 4.81805 7.84473 5.48191 6.31418 6.70109C4.78365 7.92027 3.712 9.62268 3.27447 11.5299C3.71039 13.4386 4.78135 15.1429 6.31204 16.3636C7.84273 17.5844 9.74247 18.2494 11.7004 18.2499ZM11.7004 15.8499C10.5546 15.8499 9.45584 15.3947 8.64569 14.5845C7.83552 13.7744 7.38039 12.6756 7.38039 11.5299C7.38039 10.3841 7.83552 9.28532 8.64569 8.47516C9.45584 7.66501 10.5546 7.20986 11.7004 7.20986C12.8461 7.20986 13.945 7.66501 14.7551 8.47516C15.5653 9.28532 16.0204 10.3841 16.0204 11.5299C16.0204 12.6756 15.5653 13.7744 14.7551 14.5845C13.945 15.3947 12.8461 15.8499 11.7004 15.8499ZM11.7004 13.9299C12.3369 13.9299 12.9473 13.677 13.3975 13.2269C13.8475 12.7769 14.1004 12.1664 14.1004 11.5299C14.1004 10.8933 13.8475 10.2829 13.3975 9.83282C12.9473 9.38273 12.3369 9.12986 11.7004 9.12986C11.0639 9.12986 10.4534 9.38273 10.0033 9.83282C9.55324 10.2829 9.30039 10.8933 9.30039 11.5299C9.30039 12.1664 9.55324 12.7769 10.0033 13.2269C10.4534 13.677 11.0639 13.9299 11.7004 13.9299Z" fill="black"/>
</svg>
