<svg width="24" height="24" viewBox="0 0 24 24" fill="none" xmlns="http://www.w3.org/2000/svg">
<path d="M11.7004 1.92984C17.0025 1.92984 21.3004 6.22776 21.3004 11.5299C21.3004 16.832 17.0025 21.1299 11.7004 21.1299C6.39828 21.1299 2.10036 16.832 2.10036 11.5299H4.02036C4.02036 15.7712 7.45908 19.2099 11.7004 19.2099C15.9417 19.2099 19.3804 15.7712 19.3804 11.5299C19.3804 7.28856 15.9417 3.84984 11.7004 3.84984C9.06036 3.84984 6.7314 5.18136 5.34996 7.20984H7.86036V9.12984H2.10036V3.36984H4.02036V5.76984C5.7714 3.43704 8.5602 1.92984 11.7004 1.92984ZM12.6604 6.72984V11.1315L15.7737 14.2448L14.4153 15.6032L10.7404 11.9264V6.72984H12.6604Z" fill="black"/>
</svg>
