<svg width="24" height="24" viewBox="0 0 24 24" fill="none" xmlns="http://www.w3.org/2000/svg">
<path d="M10.7404 4.80986H4.98036V18.2499H10.7404V4.80986ZM12.6604 4.80986V18.2499H18.4204V4.80986H12.6604ZM4.02036 2.88986H19.3804C19.635 2.88986 19.8791 2.99101 20.0592 3.17105C20.2392 3.35107 20.3404 3.59526 20.3404 3.84986V19.2099C20.3404 19.4645 20.2392 19.7086 20.0592 19.8887C19.8791 20.0687 19.635 20.1699 19.3804 20.1699H4.02036C3.76575 20.1699 3.52158 20.0687 3.34154 19.8887C3.1615 19.7086 3.06036 19.4645 3.06036 19.2099V3.84986C3.06036 3.59526 3.1615 3.35107 3.34154 3.17105C3.52158 2.99101 3.76575 2.88986 4.02036 2.88986Z" fill="black"/>
</svg>
