<svg width="24" height="24" viewBox="0 0 24 24" fill="none" xmlns="http://www.w3.org/2000/svg">
<path d="M18.4204 9.60989H19.3804C19.635 9.60989 19.8791 9.71098 20.0592 9.89098C20.2392 10.0711 20.3404 10.3152 20.3404 10.5699V20.1699C20.3404 20.4245 20.2392 20.6686 20.0592 20.8487C19.8791 21.0287 19.635 21.1299 19.3804 21.1299H4.02036C3.76575 21.1299 3.52158 21.0287 3.34154 20.8487C3.1615 20.6686 3.06036 20.4245 3.06036 20.1699V10.5699C3.06036 10.3152 3.1615 10.0711 3.34154 9.89098C3.52158 9.71098 3.76575 9.60989 4.02036 9.60989H4.98036V8.64984C4.98036 7.76736 5.15418 6.89352 5.49189 6.07821C5.8296 5.2629 6.32459 4.5221 6.9486 3.89809C7.57261 3.27408 8.31342 2.77908 9.12873 2.44138C9.94407 2.10366 10.8179 1.92984 11.7004 1.92984C12.5828 1.92984 13.4567 2.10366 14.272 2.44138C15.0873 2.77908 15.8281 3.27408 16.4521 3.89809C17.0761 4.5221 17.5711 5.2629 17.9088 6.07821C18.2465 6.89352 18.4204 7.76736 18.4204 8.64984V9.60989ZM4.98036 11.5299V19.2099H18.4204V11.5299H4.98036ZM10.7404 13.4499H12.6604V17.2899H10.7404V13.4499ZM16.5004 9.60989V8.64984C16.5004 7.3768 15.9947 6.1559 15.0945 5.25573C14.1943 4.35556 12.9734 3.84984 11.7004 3.84984C10.4273 3.84984 9.20642 4.35556 8.30625 5.25573C7.40607 6.1559 6.90036 7.3768 6.90036 8.64984V9.60989H16.5004Z" fill="black"/>
</svg>
