<svg width="24" height="24" viewBox="0 0 24 24" fill="none" xmlns="http://www.w3.org/2000/svg">
<path d="M11.7004 21.1299C6.39826 21.1299 2.10034 16.832 2.10034 11.5299C2.10034 7.23096 4.92562 3.59256 8.82034 2.36952V4.40856C7.17002 5.07869 5.80382 6.3014 4.95544 7.86756C4.10705 9.43371 3.82919 11.246 4.16938 12.9944C4.50958 14.7427 5.4467 16.3187 6.82043 17.4524C8.19417 18.5862 9.91919 19.2074 11.7004 19.2099C13.2303 19.2098 14.7255 18.7529 15.9943 17.8978C17.263 17.0426 18.2475 15.8281 18.8217 14.4099H20.8607C19.6377 18.3046 15.9993 21.1299 11.7004 21.1299ZM21.2524 12.4899H10.7404V1.97784C11.0562 1.94616 11.3768 1.92984 11.7004 1.92984C17.0024 1.92984 21.3004 6.22776 21.3004 11.5299C21.3004 11.8534 21.284 12.174 21.2524 12.4899ZM12.6604 3.90936V10.5699H19.3209C19.1072 8.87795 18.3367 7.30521 17.1308 6.09935C15.9249 4.89349 14.3523 4.12305 12.6604 3.90936Z" fill="black"/>
</svg>
