<svg width="24" height="24" viewBox="0 0 24 24" fill="none" xmlns="http://www.w3.org/2000/svg">
<path fill-rule="evenodd" clip-rule="evenodd" d="M12 19.7C16.2526 19.7 19.7 16.2526 19.7 12C19.7 7.74741 16.2526 4.3 12 4.3C7.74741 4.3 4.3 7.74741 4.3 12C4.3 16.2526 7.74741 19.7 12 19.7ZM12 21C16.9706 21 21 16.9706 21 12C21 7.02944 16.9706 3 12 3C7.02944 3 3 7.02944 3 12C3 16.9706 7.02944 21 12 21Z" fill="#FF9100"/>
<path d="M12 3C13.6598 3 15.2873 3.45899 16.7025 4.32624C18.1177 5.19348 19.2655 6.43519 20.0191 7.91408C20.7726 9.39298 21.1025 11.0514 20.9723 12.7061C20.842 14.3608 20.2568 15.9473 19.2812 17.2901L12 12L12 3Z" fill="#FF9100"/>
</svg>
