<svg width="24" height="24" viewBox="0 0 24 24" fill="none" xmlns="http://www.w3.org/2000/svg">
<path d="M5.94036 1.92981C5.94036 2.42229 6.41076 2.88981 6.90036 2.88981H16.5004C16.9929 2.88981 17.4604 2.41941 17.4604 1.92981H19.3804C19.3804 3.52053 18.0911 4.80981 16.5004 4.80981H12.6604L12.6613 6.78933C16.4495 7.26261 19.3804 10.494 19.3804 14.4099V20.1699C19.3804 20.6998 18.9503 21.1299 18.4204 21.1299H4.98036C4.45044 21.1299 4.02036 20.6998 4.02036 20.1699V14.4099C4.02036 10.4931 6.95219 7.26165 10.7404 6.78933V4.80981H6.90036C5.30676 4.80981 4.02036 3.52341 4.02036 1.92981H5.94036ZM11.7004 8.64981C8.59187 8.64981 5.94036 11.2995 5.94036 14.4099V19.2099H17.4604V14.4099C17.4604 11.3014 14.8089 8.64981 11.7004 8.64981ZM11.7004 10.5699C12.4127 10.5699 13.0789 10.7638 13.6511 11.1017L11.0207 13.7311C10.6463 14.1055 10.6463 14.7142 11.0207 15.0886C11.3673 15.4342 11.9125 15.4611 12.2879 15.1683L12.3791 15.0886L15.0095 12.4591C15.3465 13.0313 15.5404 13.6975 15.5404 14.4099C15.5404 16.5315 13.822 18.2499 11.7004 18.2499C9.57875 18.2499 7.86036 16.5315 7.86036 14.4099C7.86036 12.2883 9.57875 10.5699 11.7004 10.5699Z" fill="#09121F"/>
</svg>
