<svg width="24" height="24" viewBox="0 0 24 24" fill="none" xmlns="http://www.w3.org/2000/svg">
<path d="M2.30484 13.5075C2.02876 12.2035 2.02876 10.8561 2.30484 9.55223C3.37044 9.67707 4.30164 9.32471 4.605 8.59127C4.90932 7.85687 4.50132 6.94967 3.65844 6.28439C4.3852 5.16727 5.3378 4.21467 6.45492 3.48791C7.11924 4.32983 8.0274 4.73879 8.7618 4.43447C9.4962 4.13015 9.84855 3.19991 9.72279 2.13431C11.0267 1.85822 12.374 1.85822 13.678 2.13431C13.5532 3.19991 13.9055 4.13111 14.639 4.43447C15.3734 4.73879 16.2806 4.33079 16.9458 3.48791C18.0629 4.21467 19.0155 5.16727 19.7423 6.28439C18.9004 6.94871 18.4914 7.85687 18.7958 8.59127C19.1001 9.32567 20.0303 9.67803 21.0959 9.55223C21.372 10.8561 21.372 12.2035 21.0959 13.5075C20.0303 13.3827 19.0991 13.735 18.7958 14.4684C18.4914 15.2028 18.8994 16.11 19.7423 16.7753C19.0155 17.8924 18.0629 18.845 16.9458 19.5718C16.2815 18.7299 15.3734 18.3209 14.639 18.6252C13.9046 18.9295 13.5522 19.8598 13.678 20.9254C12.374 21.2015 11.0267 21.2015 9.72279 20.9254C9.84759 19.8598 9.49524 18.9286 8.7618 18.6252C8.0274 18.3209 7.1202 18.7289 6.45492 19.5718C5.3378 18.845 4.3852 17.8924 3.65844 16.7753C4.50036 16.111 4.90932 15.2028 4.605 14.4684C4.30068 13.734 3.37044 13.3817 2.30484 13.5075ZM4.02036 11.7315C5.07636 12.0243 5.94708 12.6934 6.37908 13.734C6.81012 14.7756 6.66708 15.8652 6.12756 16.8175C6.21972 16.9155 6.31476 17.0105 6.41268 17.1027C7.36596 16.5631 8.4546 16.4211 9.4962 16.8512C10.5369 17.2832 11.206 18.1539 11.4988 19.2099C11.6332 19.2137 11.7676 19.2137 11.902 19.2099C12.1948 18.1539 12.8639 17.2832 13.9046 16.8512C14.9462 16.4201 16.0358 16.5631 16.9881 17.1027C17.086 17.0105 17.181 16.9155 17.2732 16.8175C16.7337 15.8643 16.5916 14.7756 17.0217 13.734C17.4537 12.6934 18.3244 12.0243 19.3804 11.7315C19.3842 11.5971 19.3842 11.4627 19.3804 11.3283C18.3244 11.0355 17.4537 10.3663 17.0217 9.32567C16.5906 8.28407 16.7337 7.19447 17.2732 6.24215C17.1806 6.14462 17.0856 6.04954 16.9881 5.95703C16.0348 6.49655 14.9462 6.63863 13.9046 6.20855C12.8639 5.77655 12.1948 4.90583 11.902 3.84983C11.7676 3.84628 11.6331 3.84628 11.4988 3.84983C11.206 4.90583 10.5369 5.77655 9.4962 6.20855C8.4546 6.63959 7.365 6.49655 6.41268 5.95703C6.31476 6.04919 6.21972 6.14423 6.12756 6.24215C6.66708 7.19543 6.80916 8.28407 6.37908 9.32567C5.94708 10.3663 5.07636 11.0355 4.02036 11.3283C4.01652 11.4627 4.01652 11.5971 4.02036 11.7315ZM11.7004 14.4099C10.9365 14.4099 10.204 14.1064 9.66394 13.5663C9.12379 13.0262 8.82036 12.2936 8.82036 11.5299C8.82036 10.766 9.12379 10.0334 9.66394 9.49336C10.204 8.95326 10.9365 8.64983 11.7004 8.64983C12.4642 8.64983 13.1967 8.95326 13.7368 9.49336C14.2769 10.0334 14.5804 10.766 14.5804 11.5299C14.5804 12.2936 14.2769 13.0262 13.7368 13.5663C13.1967 14.1064 12.4642 14.4099 11.7004 14.4099ZM11.7004 12.4899C11.955 12.4899 12.1991 12.3887 12.3792 12.2087C12.5592 12.0286 12.6604 11.7845 12.6604 11.5299C12.6604 11.2752 12.5592 11.0311 12.3792 10.8511C12.1991 10.671 11.955 10.5699 11.7004 10.5699C11.4458 10.5699 11.2016 10.671 11.0216 10.8511C10.8415 11.0311 10.7404 11.2752 10.7404 11.5299C10.7404 11.7845 10.8415 12.0286 11.0216 12.2087C11.2016 12.3887 11.4458 12.4899 11.7004 12.4899Z" fill="#09121F"/>
</svg>
