<svg width="24" height="24" viewBox="0 0 24 24" fill="none" xmlns="http://www.w3.org/2000/svg">
<path d="M3.06037 2.88983H20.3404C20.595 2.88983 20.8391 2.99098 21.0192 3.17102C21.1992 3.35104 21.3004 3.59523 21.3004 3.84983V19.2099C21.3004 19.4645 21.1992 19.7086 21.0192 19.8887C20.8391 20.0687 20.595 20.1699 20.3404 20.1699H3.06037C2.80576 20.1699 2.56159 20.0687 2.38155 19.8887C2.20151 19.7086 2.10037 19.4645 2.10037 19.2099V3.84983C2.10037 3.59523 2.20151 3.35104 2.38155 3.17102C2.56159 2.99098 2.80576 2.88983 3.06037 2.88983ZM4.02037 4.80983V18.2499H19.3804V4.80983H4.02037ZM11.7004 14.4099H17.4604V16.3299H11.7004V14.4099ZM8.50069 11.5299L5.78485 8.81495L7.14325 7.45655L11.2156 11.5299L7.14325 15.6032L5.78485 14.2448L8.50069 11.5299Z" fill="#09121F"/>
</svg>
