<svg width="24" height="24" viewBox="0 0 24 24" fill="none" xmlns="http://www.w3.org/2000/svg">
<path d="M6.90036 9.60984H19.3804C19.635 9.60984 19.8791 9.71093 20.0592 9.89093C20.2392 10.071 20.3404 10.3152 20.3404 10.5698V20.1698C20.3404 20.4244 20.2392 20.6686 20.0592 20.8487C19.8791 21.0287 19.635 21.1298 19.3804 21.1298H4.02036C3.76575 21.1298 3.52158 21.0287 3.34154 20.8487C3.1615 20.6686 3.06036 20.4244 3.06036 20.1698V10.5698C3.06036 10.3152 3.1615 10.071 3.34154 9.89093C3.52158 9.71093 3.76575 9.60984 4.02036 9.60984H4.98036V8.6498C4.97982 7.1356 5.49068 5.66559 6.43015 4.47806C7.36961 3.29053 8.6826 2.45509 10.1563 2.10717C11.63 1.75925 13.178 1.91924 14.5494 2.5612C15.9207 3.20317 17.0351 4.28948 17.7119 5.64404L15.9945 6.50228C15.5111 5.53462 14.7151 4.75858 13.7354 4.29999C12.7557 3.8414 11.6499 3.72714 10.5972 3.97573C9.54449 4.22432 8.60659 4.8212 7.93558 5.66958C7.26457 6.51797 6.89979 7.56813 6.90036 8.6498V9.60984ZM4.98036 11.5298V19.2098H18.4204V11.5298H4.98036ZM9.78039 14.4098H13.6204V16.3298H9.78039V14.4098Z" fill="#09121F"/>
</svg>
