<svg width="25" height="25" viewBox="0 0 25 25" fill="none" xmlns="http://www.w3.org/2000/svg">
<path d="M24.42 5.09326L21.4889 19.3874H19.682L16.771 5.09326H18.9392L20.5654 15.0711H20.6055L22.2518 5.09326H24.42Z" fill="black"/>
<path d="M9.29822 19.3874V5.09326H12.3699C12.932 5.09326 13.4272 5.16687 13.8555 5.3141C14.2838 5.46132 14.6719 5.72231 15.0199 6.09706C15.3679 6.47182 15.6088 6.91349 15.7426 7.42209C15.8765 7.9173 15.9434 8.59319 15.9434 9.44977C15.9434 10.0922 15.9032 10.6343 15.8229 11.0759C15.756 11.5176 15.6021 11.9325 15.3612 12.3206C15.0801 12.7891 14.7054 13.1572 14.2369 13.4248C13.7685 13.6791 13.1528 13.8063 12.3899 13.8063H11.346V19.3874H9.29822ZM11.346 7.02056V11.879H12.3297C12.7446 11.879 13.0658 11.8187 13.2934 11.6983C13.5209 11.5778 13.6882 11.4105 13.7953 11.1964C13.9023 10.9956 13.9626 10.748 13.9759 10.4536C14.0027 10.1591 14.0161 9.83121 14.0161 9.46984C14.0161 9.13524 14.0094 8.82072 13.996 8.52627C13.9826 8.21844 13.9224 7.95076 13.8153 7.72323C13.7083 7.4957 13.5477 7.3217 13.3335 7.20125C13.1194 7.08079 12.8115 7.02056 12.41 7.02056H11.346Z" fill="black"/>
<path d="M8.0689 5.09326L5.1378 19.3874H3.33095L0.419922 5.09326H2.58814L4.2143 15.0711H4.25445L5.90069 5.09326H8.0689Z" fill="black"/>
</svg>
