<svg width="24" height="24" viewBox="0 0 24 24" fill="none" xmlns="http://www.w3.org/2000/svg">
<path d="M12.5317 2.88981L21.6766 18.7298C21.7609 18.8757 21.8053 19.0413 21.8053 19.2098C21.8053 19.3783 21.7609 19.5439 21.6766 19.6898C21.5924 19.8357 21.4712 19.957 21.3253 20.0412C21.1793 20.1255 21.0138 20.1698 20.8453 20.1698H2.55537C2.38686 20.1698 2.22131 20.1255 2.07538 20.0412C1.92944 19.957 1.80826 19.8357 1.724 19.6898C1.63975 19.5439 1.59539 19.3783 1.5954 19.2098C1.5954 19.0413 1.63975 18.8757 1.72401 18.7298L10.8689 2.88981C10.9532 2.74388 11.0744 2.62271 11.2204 2.53846C11.3663 2.45421 11.5318 2.40985 11.7003 2.40985C11.8689 2.40985 12.0344 2.45421 12.1803 2.53846C12.3262 2.62271 12.4475 2.74388 12.5317 2.88981ZM4.21809 18.2498H19.1825L11.7003 5.28981L4.21809 18.2498ZM10.7403 15.3698H12.6603V17.2898H10.7403V15.3698ZM10.7403 8.64981H12.6603V13.4498H10.7403V8.64981Z" fill="#09121F"/>
</svg>
