<svg width="24" height="24" viewBox="0 0 24 24" fill="none" xmlns="http://www.w3.org/2000/svg">
<path d="M21.5681 17.1138C20.8744 17.1138 20.5395 16.7942 20.109 16.3584C19.6784 15.9226 18.9608 15.2252 17.7409 15.2252C16.5209 15.2252 15.899 15.8644 15.3727 16.3584C14.8465 16.8523 14.6073 17.1138 13.9136 17.1138C13.2199 17.1138 12.885 16.7942 12.4545 16.3584C12.0239 15.9226 11.3063 15.2252 10.0864 15.2252C8.86644 15.2252 8.24451 15.8644 7.71826 16.3584C7.19202 16.8523 6.95282 17.1138 6.25913 17.1138C5.56544 17.1138 5.23056 16.7942 4.79999 16.3584C4.36943 15.9226 3.6279 15.2252 2.43189 15.2252L1.71428 15.2252L1.71428 16.9686L2.43189 16.9686C3.12557 16.9686 3.46046 17.2882 3.89102 17.724C4.32159 18.1598 5.03919 18.8572 6.25913 18.8572C7.47906 18.8572 8.10099 18.218 8.62723 17.724C9.15348 17.2301 9.39268 16.9686 10.0864 16.9686C10.7801 16.9686 11.1149 17.2882 11.5455 17.724C11.9761 18.1598 12.6937 18.8572 13.9136 18.8572C15.1335 18.8572 15.7555 18.218 16.2817 17.724C16.808 17.2301 17.0472 16.9686 17.7409 16.9686C18.4345 16.9686 18.7694 17.2882 19.2 17.724C19.6306 18.1598 20.3721 18.8572 21.5681 18.8572L22.2857 18.8572L22.2857 17.1138L21.5681 17.1138Z" fill="black"/>
<path d="M21.5681 12.0582C20.8744 12.0582 20.5395 11.7386 20.109 11.3027C19.6784 10.8669 18.9608 10.1696 17.7409 10.1696C16.5209 10.1696 15.899 10.8088 15.3727 11.3027C14.8465 11.7967 14.6073 12.0582 13.9136 12.0582C13.2199 12.0582 12.885 11.7386 12.4545 11.3027C12.0239 10.8669 11.3063 10.1696 10.0864 10.1696C8.86644 10.1696 8.24451 10.8088 7.71826 11.3027C7.19202 11.7967 6.95282 12.0582 6.25913 12.0582C5.56544 12.0582 5.23056 11.7386 4.79999 11.3027C4.36943 10.8669 3.6279 10.1986 2.43189 10.1986L1.71428 10.1986L1.71428 11.9419L2.43189 11.9419C3.12557 11.942 3.46046 12.2616 3.89102 12.6974C4.32159 13.1332 5.03919 13.8306 6.25913 13.8306C7.47906 13.8306 8.10099 13.1913 8.62723 12.6974C9.15348 12.2035 9.39268 11.942 10.0864 11.942C10.7801 11.942 11.1149 12.2616 11.5455 12.6974C11.9761 13.1332 12.6937 13.8306 13.9136 13.8306C15.1335 13.8306 15.7555 13.1913 16.2817 12.6974C16.808 12.2035 17.0472 11.942 17.7409 11.942C18.4345 11.942 18.7694 12.2616 19.2 12.6974C19.6306 13.1332 20.3721 13.8015 21.5681 13.8015L22.2857 13.8015L22.2857 12.0582L21.5681 12.0582Z" fill="black"/>
<path d="M21.5681 7.03144C20.8744 7.03144 20.5395 6.71183 20.109 6.27599C19.6784 5.84016 18.9608 5.14282 17.7409 5.14282C16.5209 5.14282 15.899 5.78205 15.3727 6.27599C14.8465 6.76994 14.6073 7.03144 13.9136 7.03144C13.2199 7.03144 12.885 6.71183 12.4545 6.27599C12.0239 5.84016 11.3063 5.14282 10.0864 5.14282C8.86644 5.14282 8.24451 5.78205 7.71826 6.27599C7.19202 6.76994 6.95282 7.03144 6.25913 7.03144C5.56544 7.03144 5.23056 6.71183 4.79999 6.27599C4.36943 5.84016 3.6279 5.14282 2.43189 5.14282L1.71428 5.14282L1.71428 6.88616L2.43189 6.88616C3.12557 6.88616 3.46046 7.20577 3.89102 7.64161C4.32159 8.07744 5.03919 8.77478 6.25913 8.77478C7.47906 8.77478 8.10099 8.13556 8.62723 7.64161C9.15348 7.14766 9.39268 6.88616 10.0864 6.88616C10.7801 6.88616 11.1149 7.20577 11.5455 7.64161C11.9761 8.07744 12.6937 8.77478 13.9136 8.77478C15.1335 8.77478 15.7555 8.13556 16.2817 7.64161C16.808 7.14766 17.0472 6.88616 17.7409 6.88616C18.4345 6.88616 18.7694 7.20577 19.2 7.64161C19.6306 8.07744 20.3721 8.77478 21.5681 8.77478L22.2857 8.77478L22.2857 7.03144L21.5681 7.03144Z" fill="black"/>
</svg>
