<svg width="83" height="36" fill="none" xmlns="http://www.w3.org/2000/svg"><g clip-path="url(#clip0)"><path fill-rule="evenodd" clip-rule="evenodd" d="M10.17 23.82a5.13 5.13 0 01-5.036 4.113C2.298 27.933 0 25.643 0 22.819c0-2.477 1.77-4.543 4.118-5.012v6.026H6.15l4.02-.012zm-.006-2.027H6.15v-3.986h4.013v3.98l.001.006zm-5.028-4.087h-.005.005z" fill="#fff"/><path d="M6.999 5.465L11.395.226l10.268 27.587H15.48C12.254 19.169 10.226 14.109 7 5.465zM30.004.274H24v27.548h6.003V.274zM39.042.274h-6.003v27.548h6.003V.274zM51.282 8.538c-5.868 0-10.202 4.209-10.202 9.89 0 5.683 4.334 9.891 10.202 9.891 5.888 0 10.223-4.208 10.223-9.89s-4.335-9.89-10.223-9.89zm0 5.586c2.36 0 4.086 1.78 4.086 4.305 0 2.525-1.727 4.304-4.086 4.304-2.34 0-4.065-1.779-4.065-4.304 0-2.525 1.726-4.305 4.065-4.305zM71.355 8.538c-5.044 0-8.764 4.362-8.764 9.872 0 5.548 3.72 9.91 8.745 9.91 2.416 0 4.085-.938 5.216-2.277v9.431h5.984V9.054h-5.792v2.029c-1.131-1.473-2.858-2.545-5.389-2.545zm1.42 5.586c2.358 0 4.027 1.818 4.027 4.305 0 2.487-1.669 4.304-4.028 4.304-2.397 0-4.008-1.855-4.008-4.304 0-2.449 1.611-4.305 4.008-4.305z" fill="#fff"/><path fill="#FF9800" d="M6.16 17.815h4.01v3.982H6.16z"/></g><defs><clipPath id="clip0"><path fill="#fff" d="M0 0h82.536v35.7H0z"/></clipPath></defs></svg>